<svg version="1.1" viewBox="0.0 0.0 398.51181102362204 336.0" fill="none" stroke="none" stroke-linecap="square" stroke-miterlimit="10" xmlns:xlink="http://www.w3.org/1999/xlink" xmlns="http://www.w3.org/2000/svg"><clipPath id="p.0"><path d="m0 0l398.5118 0l0 336.0l-398.5118 0l0 -336.0z" clip-rule="nonzero"/></clipPath><g clip-path="url(#p.0)"><path fill="#000000" fill-opacity="0.0" d="m0 0l398.5118 0l0 336.0l-398.5118 0z" fill-rule="evenodd"/><path fill="#000000" fill-opacity="0.0" d="m47.823 33.437683l302.86615 0" fill-rule="evenodd"/><path stroke="#ffffff" stroke-width="24.0" stroke-linejoin="round" stroke-linecap="butt" d="m47.823 33.437683l302.86615 0" fill-rule="evenodd"/><path fill="#000000" fill-opacity="0.0" d="m47.823 55.199226l302.86615 0" fill-rule="evenodd"/><path stroke="#ffffff" stroke-width="24.0" stroke-linejoin="round" stroke-linecap="butt" d="m47.823 55.199226l302.86615 0" fill-rule="evenodd"/><path fill="#000000" fill-opacity="0.0" d="m47.820377 280.8012l302.86615 0" fill-rule="evenodd"/><path stroke="#ffffff" stroke-width="24.0" stroke-linejoin="round" stroke-linecap="butt" d="m47.820377 280.8012l302.86615 0" fill-rule="evenodd"/><path fill="#000000" fill-opacity="0.0" d="m47.823 302.56274l302.86615 0" fill-rule="evenodd"/><path stroke="#ffffff" stroke-width="24.0" stroke-linejoin="round" stroke-linecap="butt" d="m47.823 302.56274l302.86615 0" fill-rule="evenodd"/><path fill="#000000" fill-opacity="0.0" d="m47.82169 157.1201l302.86615 0" fill-rule="evenodd"/><path stroke="#ffffff" stroke-width="24.0" stroke-linejoin="round" stroke-linecap="butt" d="m47.82169 157.1201l302.86615 0" fill-rule="evenodd"/><path fill="#000000" fill-opacity="0.0" d="m47.824314 178.88164l302.86615 0" fill-rule="evenodd"/><path stroke="#ffffff" stroke-width="24.0" stroke-linejoin="round" stroke-linecap="butt" d="m47.824314 178.88164l302.86615 0" fill-rule="evenodd"/></g></svg>