<svg version="1.1" viewBox="0.0 0.0 336.0 336.0" fill="none" stroke="none" stroke-linecap="square" stroke-miterlimit="10" xmlns:xlink="http://www.w3.org/1999/xlink" xmlns="http://www.w3.org/2000/svg"><clipPath id="p.0"><path d="m0 0l336.0 0l0 336.0l-336.0 0l0 -336.0z" clip-rule="nonzero"/></clipPath><g clip-path="url(#p.0)"><path fill="#000000" fill-opacity="0.0" d="m0 0l336.0 0l0 336.0l-336.0 0z" fill-rule="evenodd"/><path fill="#000000" fill-opacity="0.0" d="m16.567095 33.437683l302.86612 0" fill-rule="evenodd"/><path stroke="#ffffff" stroke-width="24.0" stroke-linejoin="round" stroke-linecap="butt" d="m16.567095 33.437683l302.86612 0" fill-rule="evenodd"/><path fill="#000000" fill-opacity="0.0" d="m16.567095 55.199226l302.86612 0" fill-rule="evenodd"/><path stroke="#ffffff" stroke-width="24.0" stroke-linejoin="round" stroke-linecap="butt" d="m16.567095 55.199226l302.86612 0" fill-rule="evenodd"/><path fill="#000000" fill-opacity="0.0" d="m16.56447 280.8012l302.86612 0" fill-rule="evenodd"/><path stroke="#ffffff" stroke-width="24.0" stroke-linejoin="round" stroke-linecap="butt" d="m16.56447 280.8012l302.86612 0" fill-rule="evenodd"/><path fill="#000000" fill-opacity="0.0" d="m16.567095 302.56274l302.86612 0" fill-rule="evenodd"/><path stroke="#ffffff" stroke-width="24.0" stroke-linejoin="round" stroke-linecap="butt" d="m16.567095 302.56274l302.86612 0" fill-rule="evenodd"/><path fill="#000000" fill-opacity="0.0" d="m16.565783 157.1201l302.86612 0" fill-rule="evenodd"/><path stroke="#ffffff" stroke-width="24.0" stroke-linejoin="round" stroke-linecap="butt" d="m16.565783 157.1201l302.86612 0" fill-rule="evenodd"/><path fill="#000000" fill-opacity="0.0" d="m16.568407 178.88164l302.86612 0" fill-rule="evenodd"/><path stroke="#ffffff" stroke-width="24.0" stroke-linejoin="round" stroke-linecap="butt" d="m16.568407 178.88164l302.86612 0" fill-rule="evenodd"/></g></svg>