<svg version="1.1" viewBox="0.0 0.0 192.0 192.0" fill="none" stroke="none" stroke-linecap="square" stroke-miterlimit="10" xmlns:xlink="http://www.w3.org/1999/xlink" xmlns="http://www.w3.org/2000/svg"><clipPath id="p.0"><path d="m0 0l192.0 0l0 192.0l-192.0 0l0 -192.0z" clip-rule="nonzero"/></clipPath><g clip-path="url(#p.0)"><path fill="#000000" fill-opacity="0.0" d="m0 0l192.0 0l0 192.0l-192.0 0z" fill-rule="evenodd"/><path fill="#000000" fill-opacity="0.0" d="m20.525543 16.95958l150.94849 0" fill-rule="evenodd"/><path stroke="#ffffff" stroke-width="24.0" stroke-linejoin="round" stroke-linecap="butt" d="m20.525543 16.95958l150.94849 0" fill-rule="evenodd"/><path fill="#000000" fill-opacity="0.0" d="m20.526852 26.112381l150.94849 0" fill-rule="evenodd"/><path stroke="#ffffff" stroke-width="24.0" stroke-linejoin="round" stroke-linecap="butt" d="m20.526852 26.112381l150.94849 0" fill-rule="evenodd"/><path fill="#000000" fill-opacity="0.0" d="m20.525543 165.88724l150.94849 0" fill-rule="evenodd"/><path stroke="#ffffff" stroke-width="24.0" stroke-linejoin="round" stroke-linecap="butt" d="m20.525543 165.88724l150.94849 0" fill-rule="evenodd"/><path fill="#000000" fill-opacity="0.0" d="m20.526852 175.04004l150.94849 0" fill-rule="evenodd"/><path stroke="#ffffff" stroke-width="24.0" stroke-linejoin="round" stroke-linecap="butt" d="m20.526852 175.04004l150.94849 0" fill-rule="evenodd"/><path fill="#000000" fill-opacity="0.0" d="m20.526197 91.42341l150.94849 0" fill-rule="evenodd"/><path stroke="#ffffff" stroke-width="24.0" stroke-linejoin="round" stroke-linecap="butt" d="m20.526197 91.42341l150.94849 0" fill-rule="evenodd"/><path fill="#000000" fill-opacity="0.0" d="m20.527506 100.57621l150.94849 0" fill-rule="evenodd"/><path stroke="#ffffff" stroke-width="24.0" stroke-linejoin="round" stroke-linecap="butt" d="m20.527506 100.57621l150.94849 0" fill-rule="evenodd"/></g></svg>